<svg width="30" height="30" viewBox="0 0 30 30" fill="none" xmlns="http://www.w3.org/2000/svg">
<path d="M26.9072 10.5909C26.8828 10.1522 26.5603 9.78469 26.1009 9.78469C26.055 9.78469 26.0109 9.80437 25.9659 9.81281C25.9612 9.81281 25.9575 9.81 25.9528 9.81C25.8609 9.80812 25.769 9.80812 25.6772 9.80812C25.3312 9.80812 24.9844 9.8175 24.6384 9.82312C24.1715 9.83062 23.7056 9.83906 23.2397 9.86625C23.2444 9.63375 23.2472 9.40031 23.2528 9.16781C23.2715 8.44688 23.264 7.72687 23.2622 7.00594C23.2584 6.22594 23.2622 5.44406 23.3456 4.66781C23.3644 4.49531 23.3831 4.32281 23.4009 4.14938C23.4234 3.94687 23.3006 3.71344 23.1628 3.57562C23.1384 3.55125 23.1056 3.54 23.0784 3.51937C22.9725 3.23719 22.7259 3.00656 22.4034 3.02813C22.095 3.05062 21.779 3.03 21.4697 3.01687C21.2118 3.00562 20.9531 3.00375 20.6972 2.99812C20.4131 2.9925 20.1309 2.99625 19.8468 2.9925C19.6275 2.99062 19.4072 2.97375 19.1878 2.9625C18.5803 2.92875 17.9728 2.92313 17.3662 2.91094C16.6847 2.89594 16.005 2.82563 15.3234 2.81438C15.2418 2.81344 15.1622 2.8125 15.0815 2.8125C14.5322 2.8125 13.9847 2.8425 13.4353 2.85375C12.8128 2.865 12.1912 2.88187 11.5687 2.88375C10.9481 2.88375 10.3284 2.88375 9.70779 2.86688C9.17154 2.85375 8.63341 2.89594 8.0981 2.93906C7.97622 2.94844 7.86841 2.98031 7.76716 3.02719C7.40154 3.06844 7.11091 3.375 7.10716 3.74906C7.10529 4.13719 7.10904 4.52344 7.09779 4.91156C7.09122 5.11594 7.07247 5.32031 7.06685 5.52375C7.05185 6.01031 7.05185 6.49406 7.0706 6.98156C7.10904 8.0325 7.14841 9.08437 7.18404 10.1353C6.91685 10.1184 6.64966 10.1156 6.38247 10.1203C6.2381 10.1241 6.09279 10.1278 5.94935 10.1259C5.67654 10.1259 5.40372 10.0922 5.12997 10.0687C4.74747 10.0369 4.36685 10.02 3.98435 10.0144C3.97966 10.0144 3.97591 10.0144 3.97122 10.0144C3.54747 10.0144 3.19685 10.3809 3.19685 10.8019C3.19685 10.8806 3.22029 10.9519 3.24279 11.0231C3.23154 11.0756 3.21091 11.1253 3.20997 11.1806C3.16497 12.8878 3.21185 14.5959 3.17247 16.3031C3.16497 16.6866 3.13685 17.0662 3.12935 17.4497C3.11997 17.8584 3.1181 18.2691 3.11435 18.6787C3.10685 19.5075 3.12372 20.3363 3.13497 21.1641C3.14622 22.0547 3.1556 22.9453 3.15747 23.8359C3.15747 24.2559 3.1556 24.6741 3.12747 25.0941C3.10497 25.4447 3.07779 25.7972 3.05529 26.1487C3.03747 26.4394 3.20904 26.6878 3.43872 26.8369C3.5756 27.0066 3.77529 27.1237 4.00591 27.1209C4.64435 27.1134 5.28372 27.075 5.92216 27.0769C6.2531 27.0769 6.58497 27.105 6.91591 27.1069C7.23935 27.1087 7.55997 27.0844 7.88154 27.0637C8.5406 27.0244 9.20154 27.0187 9.86341 27.0187C10.5393 27.0187 11.2115 27.0169 11.8856 27.0525C12.2278 27.0712 12.5709 27.0919 12.9122 27.105C13.2337 27.1181 13.5562 27.1144 13.8797 27.1162C14.5781 27.1237 15.2784 27.1237 15.9778 27.1219C16.6687 27.12 17.3597 27.1369 18.0506 27.1406C18.374 27.1425 18.6947 27.1425 19.0181 27.1406C19.3875 27.1406 19.7568 27.1388 20.1272 27.1406C21.1322 27.15 22.1362 27.1706 23.1412 27.1725C23.5631 27.1744 23.9822 27.1969 24.404 27.1837C24.839 27.1687 25.2694 27.1228 25.7062 27.1209C25.86 27.12 25.9959 27.06 26.115 26.9756C26.22 26.9625 26.3231 26.9278 26.415 26.8734C26.5359 26.8031 26.6306 26.7084 26.7009 26.5875C26.7731 26.4628 26.8106 26.3297 26.8106 26.1844C26.8922 25.5047 26.8406 24.8081 26.8406 24.1228C26.8406 23.3559 26.8369 22.5909 26.865 21.8241C26.9203 20.2941 26.9184 18.7659 26.9259 17.2331C26.9278 16.7072 26.9259 16.1803 26.9334 15.6525C26.9409 15.1106 26.9709 14.5659 26.9822 14.0241C27.0075 12.8803 26.9719 11.7328 26.9072 10.5909ZM23.2575 11.4C23.58 11.37 23.9034 11.3484 24.2278 11.3353C23.8997 11.5884 23.5744 11.8453 23.2509 12.105C23.2547 11.8753 23.2547 11.6456 23.2575 11.4159C23.2575 11.4112 23.2575 11.4056 23.2575 11.4ZM22.8815 14.2078C23.3522 13.8244 23.8228 13.44 24.3009 13.0659C24.6572 12.7978 25.0275 12.555 25.3922 12.3019C25.4081 12.6534 25.424 13.0041 25.4297 13.3566C25.4428 14.1328 25.379 14.9053 25.3612 15.6816C25.3406 16.4841 25.35 17.2884 25.3519 18.09C25.3537 18.8419 25.3444 19.5938 25.335 20.3447C25.3219 21.3366 25.2919 22.3266 25.2862 23.3156C25.2825 23.7666 25.2806 24.2203 25.2768 24.6712C25.2768 24.6853 25.2768 24.6994 25.2768 24.7134C24.3881 23.5472 23.5237 22.3622 22.6547 21.1809C22.1737 20.5275 21.689 19.8769 21.2362 19.2028C20.7422 18.4725 20.2556 17.7413 19.799 16.9875C19.7653 16.9312 19.7231 16.8834 19.679 16.8384C19.7072 16.8159 19.7344 16.7906 19.7625 16.7681C20.3512 16.3003 20.9212 15.8081 21.4987 15.3272C21.9543 14.9466 22.4203 14.5809 22.8815 14.2078ZM9.80154 4.34531C10.2862 4.37156 10.7728 4.37156 11.2593 4.36969C11.4712 4.36969 11.6812 4.36969 11.8922 4.36969C12.5569 4.37531 13.2253 4.38281 13.89 4.36219C14.564 4.34156 15.24 4.29562 15.9159 4.31344C16.2131 4.32281 16.5103 4.34906 16.8075 4.35656C17.1506 4.36594 17.4928 4.37531 17.8359 4.37906C18.3468 4.38656 18.854 4.42312 19.3622 4.45312C19.8412 4.47937 20.3203 4.48875 20.8012 4.49062C21.0375 4.4925 21.2709 4.51125 21.5072 4.50937C21.5906 4.50844 21.674 4.50562 21.7575 4.50375C21.7134 5.18719 21.7059 5.87156 21.6853 6.55781C21.6628 7.29844 21.6834 8.04187 21.6722 8.7825C21.6665 9.15937 21.6572 9.53437 21.659 9.91125C21.659 10.2769 21.674 10.6406 21.6909 11.0072C21.719 11.6587 21.7134 12.3094 21.7134 12.9628C21.7134 13.0594 21.7153 13.1541 21.719 13.2506C21.72 13.2712 21.7294 13.2881 21.7312 13.3087C21.224 13.7062 20.7187 14.1066 20.22 14.5162C19.6294 15.0028 19.05 15.5044 18.4462 15.9741C18.4556 15.9675 18.465 15.96 18.4734 15.9534C17.8162 16.4672 17.1862 17.0156 16.5328 17.5341C16.2131 17.7862 15.8962 18.045 15.5765 18.2972C15.3984 18.4387 15.225 18.5859 15.0515 18.7322C14.6259 18.4303 14.2022 18.1275 13.7859 17.8097C13.8131 17.8303 13.8403 17.8519 13.8665 17.8734C13.8356 17.8491 13.8047 17.8247 13.7728 17.8003C13.7522 17.7844 13.7315 17.7684 13.71 17.7525C13.7278 17.7656 13.7447 17.7787 13.7625 17.7919C12.7115 16.9734 11.6681 16.1428 10.6218 15.3197C9.99279 14.8256 9.36654 14.3278 8.74122 13.8281C8.74122 13.6837 8.74779 13.5403 8.75435 13.3997C8.7656 13.1362 8.77497 12.8737 8.7881 12.6103C8.81997 11.9719 8.80872 11.3325 8.7956 10.6941C8.78622 10.035 8.77872 9.37406 8.74029 8.71875C8.70654 8.175 8.70279 7.62656 8.67185 7.08094C8.66247 6.89437 8.6381 6.70875 8.6231 6.52125C8.59872 6.22219 8.6006 5.91937 8.58747 5.61844C8.58091 5.40562 8.56404 5.19187 8.55841 4.97812C8.55091 4.78875 8.55466 4.59844 8.55935 4.40906C8.97279 4.36406 9.38716 4.32188 9.80154 4.34531ZM10.3022 17.295C10.1869 17.4431 10.0715 17.5931 9.95622 17.7422C9.96935 17.7253 9.98154 17.7094 9.99466 17.6925C9.5831 18.2231 9.14341 18.7312 8.71404 19.2469C8.2781 19.7738 7.83372 20.2959 7.39591 20.8237C6.97029 21.3347 6.54747 21.8494 6.13685 22.3744C5.69341 22.9416 5.23966 23.5012 4.79997 24.0712C4.81122 24.0562 4.82247 24.0422 4.83372 24.0272C4.80372 24.0666 4.77372 24.105 4.74466 24.1434C4.75497 23.4 4.75404 22.6547 4.75591 21.9094C4.75591 21.1022 4.72779 20.2969 4.72591 19.4916C4.72216 18.6684 4.71279 17.8462 4.73529 17.0231C4.75966 16.1091 4.76341 15.1978 4.77091 14.2856C4.7756 13.7137 4.79716 13.1428 4.8131 12.5719C5.08872 12.7922 5.36341 13.0144 5.63529 13.2394C6.03466 13.5694 6.45185 13.8778 6.86247 14.1928C7.45029 14.6578 8.01841 15.1444 8.60435 15.6094C9.20998 16.0903 9.81279 16.5731 10.4184 17.0559C10.4325 17.0672 10.4465 17.0784 10.4615 17.0897C10.4053 17.1581 10.3537 17.2266 10.3022 17.295ZM6.67404 11.6709C6.85216 11.6709 7.03216 11.6634 7.21216 11.6691C7.2131 11.9794 7.2131 12.2906 7.20841 12.6009C6.82404 12.2953 6.44435 11.9841 6.07216 11.6634C6.27279 11.6691 6.47435 11.6709 6.67404 11.6709ZM21.884 25.7812C21.1931 25.7812 20.5022 25.7681 19.8093 25.77C19.1203 25.7738 18.4294 25.77 17.7403 25.7644C17.0306 25.7569 16.3237 25.725 15.6159 25.725C14.9287 25.7269 14.2434 25.7325 13.5581 25.725C12.884 25.7175 12.21 25.695 11.5359 25.6566C11.055 25.6275 10.5712 25.6209 10.0884 25.6209C9.91497 25.6209 9.7406 25.6219 9.56716 25.6228C9.40591 25.6247 9.24372 25.6228 9.08247 25.6228C8.77404 25.6209 8.4656 25.6191 8.15716 25.6322C7.6931 25.6528 7.23091 25.6828 6.76591 25.6678C6.54279 25.6622 6.31872 25.6491 6.0956 25.6416C5.88279 25.635 5.66997 25.6453 5.4581 25.6509C5.53685 25.5506 5.61654 25.4513 5.69435 25.35C6.04029 24.9 6.3806 24.4462 6.72372 23.9934C6.71622 24.0037 6.70779 24.0141 6.70029 24.0244C6.73591 23.9766 6.77247 23.9287 6.80904 23.8809C6.80154 23.8912 6.7931 23.9016 6.78466 23.9119C6.76497 23.9372 6.74622 23.9634 6.72654 23.9887C6.70779 24.0131 6.68904 24.0366 6.67029 24.06C6.7181 23.9981 6.76497 23.9362 6.81279 23.8744C6.80435 23.8866 6.79497 23.8978 6.7856 23.91C6.79966 23.8922 6.81372 23.8744 6.82685 23.8566C6.84654 23.8312 6.86622 23.805 6.88591 23.7797C6.88029 23.7872 6.87466 23.7947 6.86904 23.8022C7.59372 22.8741 8.34841 21.9731 9.10122 21.0684C9.94497 20.055 10.8412 19.0856 11.654 18.0478C11.8387 18.1959 12.0253 18.3412 12.2081 18.4903C12.795 18.9694 13.3875 19.4391 14.0006 19.8853C14.0765 19.9406 14.1534 19.9969 14.2303 20.0522C14.3184 20.2622 14.4844 20.4375 14.715 20.4956C14.9475 20.5528 15.1462 20.5125 15.3515 20.4028C15.4444 20.3531 15.5259 20.2725 15.6075 20.2078C15.7059 20.13 15.8043 20.0522 15.899 19.9697C16.1512 19.7559 16.3931 19.5309 16.649 19.3219C16.9031 19.1138 17.1525 18.8981 17.4103 18.6947C17.6775 18.4809 17.9484 18.2747 18.2147 18.06C18.2981 17.9916 18.3806 17.9212 18.4631 17.8519C18.7134 18.2503 18.9731 18.6412 19.2469 19.0237C19.4719 19.3397 19.7015 19.6509 19.9265 19.9669C20.3962 20.6278 20.8715 21.285 21.3469 21.9431C22.2628 23.2078 23.2097 24.4481 24.1397 25.6997C24.1556 25.7212 24.1715 25.7428 24.1875 25.7644C24.0712 25.7662 23.955 25.77 23.8397 25.7719C23.19 25.785 22.5384 25.7831 21.884 25.7812ZM13.7662 17.79C13.7737 17.7956 13.7812 17.8012 13.7887 17.8078C13.785 17.805 13.7803 17.8012 13.7765 17.7984C13.7728 17.7956 13.77 17.7928 13.7662 17.79ZM6.87279 23.8031C6.85216 23.8303 6.83154 23.8566 6.81091 23.8828C6.81747 23.8744 6.82404 23.8659 6.8306 23.8575C6.84466 23.8397 6.85872 23.8209 6.87279 23.8031ZM6.77435 23.9297C6.7781 23.9241 6.78279 23.9194 6.78654 23.9137C6.78747 23.9128 6.78747 23.9119 6.78841 23.9109C6.78372 23.9175 6.77904 23.9231 6.77435 23.9297ZM5.64747 25.4147C5.66341 25.3931 5.67935 25.3716 5.69622 25.3509C5.70466 25.3397 5.7131 25.3294 5.72154 25.3181C5.69622 25.35 5.67185 25.3828 5.64747 25.4147ZM11.5303 8.94469C11.3906 8.80594 11.3109 8.61281 11.3109 8.41406C11.3109 8.21719 11.3906 8.02406 11.5303 7.88437C11.6484 7.76625 11.8406 7.66125 12.0159 7.66125C12.0309 7.66125 12.0459 7.66219 12.0609 7.66406C12.4059 7.70156 12.7537 7.73625 13.1006 7.76625C13.2843 7.78312 13.4662 7.80187 13.65 7.77562C13.5872 7.785 13.5234 7.7925 13.4587 7.80187C13.8544 7.74844 14.2537 7.75875 14.6512 7.7625C14.9878 7.76625 15.3234 7.7625 15.66 7.75875C16.1259 7.755 16.5919 7.76625 17.0569 7.76813C17.3981 7.76813 17.7384 7.75688 18.0778 7.74375C18.4847 7.72687 18.824 8.09625 18.824 8.49C18.824 8.88937 18.4847 9.2475 18.0778 9.23625C17.5987 9.225 17.1197 9.18281 16.6406 9.18281C16.1044 9.18281 15.5653 9.18281 15.029 9.17344C14.6053 9.16594 14.1769 9.19219 13.7531 9.21281C13.1906 9.24094 12.6225 9.21469 12.0609 9.16687C11.8556 9.14625 11.6812 9.09469 11.5303 8.94469ZM11.2069 11.2547C11.2069 10.8441 11.5537 10.4878 11.97 10.4934C12.0478 10.4934 12.1256 10.4953 12.2043 10.4972C12.539 10.5047 12.8728 10.5197 13.2093 10.5253C13.5469 10.5291 13.8872 10.5009 14.2237 10.4841C14.5378 10.4672 14.85 10.4672 15.1612 10.4597C15.4265 10.4559 15.6928 10.4353 15.96 10.4334C16.1625 10.4316 16.3668 10.4259 16.5694 10.4241C16.6809 10.4241 16.7925 10.4297 16.904 10.4334C17.0231 10.4391 17.1431 10.4428 17.264 10.4409C17.3512 10.4409 17.4403 10.4409 17.5275 10.4409C17.7131 10.4409 17.8987 10.4409 18.0853 10.425C18.1481 10.4091 18.2119 10.4016 18.2747 10.4016C18.6065 10.4016 18.9159 10.6181 19.0078 10.9537C19.1156 11.34 18.8812 11.7834 18.4819 11.8809C18.3797 11.9053 18.2737 11.9147 18.1697 11.9212C17.8387 11.9456 17.5106 11.9494 17.1778 11.9362C16.9565 11.9288 16.7344 11.9325 16.5131 11.9344C16.2825 11.9381 16.0509 11.94 15.8222 11.9306C15.555 11.9194 15.2897 11.9325 15.0215 11.94C14.6962 11.9475 14.3737 11.9437 14.0484 11.9512C13.3556 11.97 12.6628 12.0094 11.97 12.0178C11.5537 12.0234 11.2069 11.6672 11.2069 11.2547Z" fill="white"/>
</svg>
